<svg xmlns="http://www.w3.org/2000/svg" viewBox="0 0 1051.631 1085.279">
  <path id="人员管理" d="M206.691,415.2V381.57c0-72.9,46.386-126.807,111.837-131.977,2.081-6.847,4.363-17.655,6.176-26.113,13.963-66.458,40.076-190.11,234.483-190.11,186.486,0,222.8,117.342,242.2,180.376,4.3,13.9,10.2,32.826,14.3,37.122h2.752c68.539,0,100.694,77.8,108.145,124.055l6.176,38.8L206.691,415.2ZM559.119,100.5c-139.965,0-155.27,72.7-168.764,136.81-7.049,33.3-16.648,79.011-61.49,79.011A49.944,49.944,0,0,0,280.4,347.939l566.84-1.208c-7.988-15.977-19.937-30.812-36.72-30.812-47.863,0-61.893-45.648-73.305-82.3C717.947,171.188,696.063,100.5,559.119,100.5Zm276.3,1014.723h-20.81c-29,0-55.717-19.8-66.055-47.595-4.7-2.215-10.472-4.565-15.1-6.981a79.617,79.617,0,0,1-29.134,5.773c-18.461,0-36.988-6.982-49.81-20.877l-15.1-15.037a72.03,72.03,0,0,1-15.1-78.944q-3.8-7.339-6.982-14.97c-29-10.472-49.877-37.257-49.877-66.189V848.385c0-29,20.877-55.717,48.736-66.055,2.349-4.7,4.565-9.331,6.981-14.03a1.1,1.1,0,0,1,1.208-1.074,79.479,79.479,0,0,1-5.773-29c0-18.595,6.981-37.257,20.877-49.944l15.1-15.1a69.4,69.4,0,0,1,49.81-20.877c10.472,0,19.8,2.349,29.134,5.773a112.659,112.659,0,0,1,13.9-5.773c10.338-27.792,37.123-46.386,66.055-46.386H834.35c29.134,0,55.717,19.669,66.19,47.595,4.565,2.215,10.338,4.565,14.97,6.981a61.96,61.96,0,0,1,29.134-5.773c18.461,0,37.122,6.847,49.81,20.877l15.1,15.1c20.877,20.877,26.583,53.368,15.1,78.81,2.349,4.7,4.7,9.331,6.981,15.1,27.926,10.472,46.386,37.257,46.386,66.189v20.877c0,30.141-19.669,55.717-47.595,66.055-2.215,4.7-4.565,10.472-6.981,15.1,3.558,9.331,5.907,18.595,5.907,29.134,0,18.461-7.049,37.122-20.877,49.81l-14.03,13.9a69.412,69.412,0,0,1-49.81,20.877c-10.472,0-19.669-2.215-29.134-5.773a158.861,158.861,0,0,1-14.97,6.981c-9.4,27.657-36.116,47.461-65.115,47.461m-93.578-108.145a22.825,22.825,0,0,1,7.317,1.947l6.31,3.289c6.31,3.155,12.687,6.31,17.991,8.391,5.1,2.081,9.465,6.31,10.338,11.546,3.155,15.708,16.782,27.255,31.618,27.255h18.863a33.363,33.363,0,0,0,31.484-27.255,16.514,16.514,0,0,1,10.472-11.546c7.317-2.081,15.708-6.31,24.1-10.472a17.454,17.454,0,0,1,15.843.94c10.338,7.451,29.268,6.444,39.875-5.236l13.627-13.627a32.02,32.02,0,0,0,9.465-22.958,37.191,37.191,0,0,0-5.236-17.991c-3.155-4.229-3.155-10.472-1.074-15.708l2.081-3.155c3.155-7.317,7.317-14.7,9.465-21.011a16.38,16.38,0,0,1,11.546-10.472,33.5,33.5,0,0,0,26.248-31.484V849.592a33.363,33.363,0,0,0-26.248-31.484A16.783,16.783,0,0,1,984.384,807.5c-3.155-8.391-6.31-16.782-10.472-23.965a16.38,16.38,0,0,1,1.074-15.843,33.094,33.094,0,0,0-4.229-40.747l-14.7-13.761c-10.606-10.472-28.329-12.62-39.875-4.229a17.051,17.051,0,0,1-15.842,1.074,96.4,96.4,0,0,0-24.1-10.472,16.379,16.379,0,0,1-10.472-11.546,33.5,33.5,0,0,0-31.484-26.247H815.419A33.565,33.565,0,0,0,783.8,688.012c-.94,5.236-5.236,9.465-10.338,11.546a111.705,111.705,0,0,0-24.234,10.472,16.782,16.782,0,0,1-15.708-1.074c-11.546-8.391-29.4-6.31-40.882,4.229l-13.627,13.761a32.021,32.021,0,0,0-9.465,22.958,35.286,35.286,0,0,0,5.236,17.856c3.155,4.3,3.155,10.606,1.074,15.843-2.081,3.155-3.155,6.31-5.236,9.465-3.155,5.236-6.31,10.472-7.317,14.567-2.081,5.236-6.31,9.6-11.546,10.606-13.627,3.021-28.329,15.708-28.329,31.484V868.59c0,15.708,14.7,28.329,28.329,31.484A16.514,16.514,0,0,1,663.3,910.546a137.339,137.339,0,0,0,8.391,18.863l3.155,5.236a16.783,16.783,0,0,1-1.074,15.708,32.356,32.356,0,0,0,5.236,41.016L692.64,1005a33.028,33.028,0,0,0,40.882,4.095,19.735,19.735,0,0,1,8.324-2.014m80.89-58.736A87.738,87.738,0,1,1,910.474,860.6a88.611,88.611,0,0,1-87.738,87.738m0-139.293a50.615,50.615,0,1,0,50.615,50.615,50.683,50.683,0,0,0-50.615-50.615m-258.783,309.6-465.139-.269a73.3,73.3,0,0,1-65.384-41.285,69.412,69.412,0,0,1,8.593-74.312C88.342,946.122,182.188,899.6,264.958,858.586c49.407-24.5,124.122-61.625,132.581-79.347-.671-14.164-33.363-63.437-93.914-119.692a137.146,137.146,0,0,1-43.768-99.888v-159.9h67.129v159.9a68.241,68.241,0,0,0,22.354,50.548C392.236,650.087,464.064,725.473,464.064,783c0,51.69-67.264,85.12-169.233,135.6C218.1,956.734,131.17,999.9,94.047,1045.277h.067l4.766,6.042,465.139.269-.067,67.062Zm277.781-465.2L779.975,627.2c8.525-20.072,21.75-59.745,21.079-81.025-1.208-37.055,0-148.826,0-148.826l67.129.738c0,.067-1.208,109.689-.134,146.073,1.343,42.9-23.428,102.574-26.315,109.287Z" transform="translate(-26.398 -33.371)"/>
</svg>
