<svg xmlns="http://www.w3.org/2000/svg" viewBox="0 0 1026.642 1024">
  <path id="首页" d="M1085.057,484.274,587.234,68.482a15.436,15.436,0,0,0-19.848,0L69.549,484.274a15.49,15.49,0,0,0,9.916,27.377H152.8v517.821a59.482,59.482,0,0,0,59.426,59.4h266.4a15.477,15.477,0,0,0,15.492-15.492v-26.443h-.065V763.951a83.256,83.256,0,0,1,166.512,0V1064.2l.06.08v9.094a15.477,15.477,0,0,0,15.492,15.492H942.421a59.474,59.474,0,0,0,59.4-59.4V511.652h73.31a15.483,15.483,0,0,0,9.931-27.377Zm-98.733-3.607a15.474,15.474,0,0,0-15.49,15.492v533.314a28.431,28.431,0,0,1-28.412,28.412H691.6v-13.463h-.061V763.951a114.24,114.24,0,0,0-228.479,0v293.933H212.245a28.456,28.456,0,0,1-28.441-28.412V496.16a15.474,15.474,0,0,0-15.492-15.492H122.194L577.3,100.552,1032.4,480.668Zm0,0" transform="translate(-63.988 -64.869)"/>
</svg>
