<svg xmlns="http://www.w3.org/2000/svg" viewBox="0 0 843.603 1024">
  <g id="系统日志" transform="translate(-143.2 -64)">
    <path id="路径_11" data-name="路径 11" d="M780.2,441.668A32.446,32.446,0,0,0,747.732,409.2H301.068a32.468,32.468,0,1,0,0,64.936H747.732A32.373,32.373,0,0,0,780.2,441.668ZM268.714,649.052a32.446,32.446,0,0,0,32.468,32.468H474.269c10.746-23.779,25.266-45.272,42.071-64.936H301.068a32.422,32.422,0,0,0-32.354,32.468Z" transform="translate(17.962 49.446)"/>
    <path id="路径_12" data-name="路径 12" d="M521.384,1007.63H224.6a16.692,16.692,0,0,1-16.463-16.463V234.8A16.692,16.692,0,0,1,224.6,218.337h133.53v62.421a32.468,32.468,0,1,0,64.936,0V218.337H645.883v62.421a32.468,32.468,0,0,0,64.936,0V218.337H860.24A16.692,16.692,0,0,1,876.7,234.8V603.838c23.894,13.262,46.073,29.153,64.936,48.588V234.8a81.432,81.432,0,0,0-81.4-81.4H710.819V96.468a32.468,32.468,0,0,0-64.936,0v57.048H423.065V96.468a32.468,32.468,0,1,0-64.936,0v57.048H224.6a81.432,81.432,0,0,0-81.4,81.4V991.168a81.432,81.432,0,0,0,81.4,81.4H587.692C561.969,1054.96,539.9,1032.667,521.384,1007.63Z" transform="translate(0 0)"/>
    <path id="路径_13" data-name="路径 13" d="M939.691,737.94a22.892,22.892,0,0,0-4.459-6.859,68.917,68.917,0,0,0-12.347-10.06,63.131,63.131,0,0,0-8.574-4.8,24.028,24.028,0,0,0-2.972-1.486,135.661,135.661,0,0,1-24.122-13.948c-1.029-3.773,1.143-16.806,6.059-29.381,0-.229.114-.343.114-.457a20.434,20.434,0,0,0,1.486-4.459c.8-2.515,1.486-5.145,2.172-8a63.187,63.187,0,0,0,1.372-15.891,19.013,19.013,0,0,0-1.6-7.545,50.556,50.556,0,0,0-7.2-10.975l-37.841-37.841a34.659,34.659,0,0,0-10.4-6.745c-7.088-2.972-16.12-1.829-23.779-.229a58.988,58.988,0,0,0-8.8,2.4,27.61,27.61,0,0,0-4,1.372c-10.4,3.887-20.693,6.4-27.095,7.2-2.972-1.715-10.4-11.318-17.149-26.523a30.637,30.637,0,0,0-1.372-2.744c-1.372-2.744-2.858-5.259-4.23-7.431a69.972,69.972,0,0,0-10.4-12.69,22.643,22.643,0,0,0-6.4-4.116A50.759,50.759,0,0,0,725.1,534.1H672.173a52.046,52.046,0,0,0-12.69,2.515,22.145,22.145,0,0,0-6.859,4.459,71.37,71.37,0,0,0-10.175,12.347,68.029,68.029,0,0,0-5.488,9.832,13.645,13.645,0,0,0-.915,1.829c-6.174,13.833-13.6,23.551-16.577,24.351-6.288,0-16.691-2.515-28.238-6.859-1.029-.457-2.058-.686-3.087-1.029a77.377,77.377,0,0,0-8.46-2.286,72.173,72.173,0,0,0-15.662-1.486,22.979,22.979,0,0,0-8.231,1.715,55.185,55.185,0,0,0-10.746,7.2l-37.5,37.5a50.182,50.182,0,0,0-6.974,10.632,20.691,20.691,0,0,0-1.6,7.888,76.681,76.681,0,0,0,1.486,15.662A59.856,59.856,0,0,0,503.2,668.2c.343,1.029.686,1.943,1.029,2.972a146.942,146.942,0,0,1,7.2,26.866c-1.715,2.972-11.318,10.518-21.836,15.434a41.8,41.8,0,0,0-5.259,2.058,13.029,13.029,0,0,0-2.172,1.143,63.766,63.766,0,0,0-7.431,4.344,78.447,78.447,0,0,0-12.347,9.946,20.969,20.969,0,0,0-4.916,7.66,53.89,53.89,0,0,0-2.172,12.118v52.932a49.91,49.91,0,0,0,2.629,12.919,20.231,20.231,0,0,0,4.344,6.631,66.809,66.809,0,0,0,12.118,9.946,82.143,82.143,0,0,0,11.89,6.516A138.676,138.676,0,0,1,510.4,853.635c.915,3.087-.457,14.4-5.831,29.038A7.94,7.94,0,0,0,504,884.16a24.346,24.346,0,0,0-1.258,3.773,65.286,65.286,0,0,0-2.172,8.117,81.587,81.587,0,0,0-1.486,15.662,21.965,21.965,0,0,0,1.715,8.117,51.436,51.436,0,0,0,7.088,10.747l37.727,37.613a57.785,57.785,0,0,0,10.861,7.2c7.088,2.972,15.548,1.715,23.551.114A79.5,79.5,0,0,0,591,972.3a10.066,10.066,0,0,0,1.715-.572c7.66-2.858,19.321-6.288,26.98-7.2,2.858,1.6,10.06,10.746,16.577,25.151,0,.114.114.229.114.343a40.471,40.471,0,0,0,1.829,3.887c1.372,2.63,2.858,5.03,4.344,7.545a75.472,75.472,0,0,0,10.061,12.233,20.894,20.894,0,0,0,6.859,4.459,54.273,54.273,0,0,0,12.69,2.515H725.1a48.9,48.9,0,0,0,12.8-2.515,22.149,22.149,0,0,0,6.859-4.459,74.913,74.913,0,0,0,9.946-12,66.234,66.234,0,0,0,5.373-9.6,12.488,12.488,0,0,0,.915-1.715c.229-.343.343-.8.572-1.143,6.174-13.49,13.376-22.979,16.234-23.779,7.66,0,19.321,3.43,25.037,5.488a10.482,10.482,0,0,0,2.629,1.029,15.455,15.455,0,0,0,3.887,1.258,62.023,62.023,0,0,0,8.231,2.172,70.374,70.374,0,0,0,15.548,1.486,19.394,19.394,0,0,0,8.574-1.829,52.31,52.31,0,0,0,10.4-7.088l37.613-37.613a50.18,50.18,0,0,0,6.974-10.632,19.563,19.563,0,0,0,1.6-7.66,77.24,77.24,0,0,0-1.486-16.463c-.343-1.715-.8-3.43-1.258-5.145a23.447,23.447,0,0,0-2.058-6.631,7.865,7.865,0,0,0-.343-.915c-4.916-12.576-7.088-25.494-7.088-26.752,1.6-2.858,10.746-10.06,26.523-17.149,1.029-.457,2.058-1.029,3.087-1.6a68.17,68.17,0,0,0,7.088-4.116,69.584,69.584,0,0,0,12.347-10.175,20.29,20.29,0,0,0,4.116-6.059,49.852,49.852,0,0,0,2.858-13.49V750.515c.114-2.629-1.372-9.946-2.4-12.576Zm-44.243,61.392a18.5,18.5,0,0,0-2.058,1.143c-13.6,6.059-37.27,18.863-47.1,39.328-6.631,19.321,1.372,45.387,6.631,59.106l.343-.114a22.914,22.914,0,0,0,1.372,5.831l-27.9,28.467c-1.143-.229-2.629-.572-4.344-1.029a7.969,7.969,0,0,0-2.172-.686.867.867,0,0,1-.457-.229c-9.146-3.43-26.18-8.917-41.728-8.917a50.77,50.77,0,0,0-19.092,3.544c-18.178,8.8-30.982,32.925-37.041,46.416a13.42,13.42,0,0,1-.572,1.258,38.473,38.473,0,0,0-2.515,4l-39.556.572c-.686-1.143-1.6-2.515-2.629-4.344l-.686-1.372c0-.114,0-.114-.114-.229s-.114-.229-.229-.343c-7.431-16.463-19.778-37.613-39.327-47.1-17.034-6.059-43.557.8-60.363,7.088a21.821,21.821,0,0,0-4.687,1.258l-28.238-27.552c.229-1.258.686-2.858,1.143-4.8l.686-2.058c6.4-16.92,12.69-40.928,5.6-61.392-9.032-18.292-33.04-30.982-47.216-37.27v.229a32.422,32.422,0,0,0-4.459-2.858l-.343-39.785c1.029-.686,2.286-1.486,3.887-2.4l2.058-1.029c13.49-6.059,37.27-18.749,47.216-39.442,6.059-17.606.114-40.928-7.2-60.363a26.74,26.74,0,0,0-1.143-4.573l27.666-28.352c1.258.229,2.744.686,4.8,1.143l2.058.686c9.032,3.43,26.523,9.146,42.3,9.146a51.561,51.561,0,0,0,19.092-3.544c17.149-8.46,29.5-30.41,37.27-47.33a22.716,22.716,0,0,0,2.629-4.459l39.556-.686c.686,1.143,1.6,2.515,2.744,4.344.229.686.686,1.258.915,1.943,6.174,13.719,18.978,37.613,39.556,47.216,17.492,5.831,47.1-2.172,56.59-5.945.8-.229,2.4-.8,3.658-1.258a29.717,29.717,0,0,0,4.573-1.143L855.091,649c-.343,1.258-.686,2.858-1.258,4.8l-.686,2.058c-5.373,13.833-13.147,39.556-5.6,61.163,8.917,18.292,33.04,31.1,42.414,34.755a34.8,34.8,0,0,0,5.488,2.972,37.044,37.044,0,0,0,4,2.4l.8,39.442C898.763,797.388,897.277,798.3,895.447,799.332Z" transform="translate(44.705 67.337)"/>
    <path id="路径_14" data-name="路径 14" d="M682.781,645.7A115.582,115.582,0,1,0,798.363,761.281,115.708,115.708,0,0,0,682.781,645.7Zm0,187.834a72.253,72.253,0,1,1,72.253-72.253C754.92,801.066,722.566,833.534,682.781,833.534Z" transform="translate(60.734 83.323)"/>
  </g>
</svg>
