<svg xmlns="http://www.w3.org/2000/svg" viewBox="0 0 1092.308 1024.142">
  <g id="icon-landlords" transform="translate(-115.003 -73.138)">
    <path id="路径_1" data-name="路径 1" d="M1173.146,494.13a33.962,33.962,0,0,1-19.208-5.943L656.479,148.716l-487.854,339.3a34.131,34.131,0,0,1-38.976-56.041L636.807,79.248a34.132,34.132,0,0,1,38.727-.171L1192.415,431.8a34.133,34.133,0,0,1-19.269,62.327Z"/>
    <path id="路径_2" data-name="路径 2" d="M1002.275,1023.471h-.005l-758.928-.1a34.132,34.132,0,0,1-34.128-34.132V309.34a34.132,34.132,0,1,1,68.263,0v645.77l690.667.093V316.16a34.132,34.132,0,1,1,68.263,0V989.339a34.13,34.13,0,0,1-34.132,34.132Z" transform="translate(34.412 73.809)"/>
    <path id="路径_3" data-name="路径 3" d="M556.7,668.69c-94.022,0-170.513-76.492-170.513-170.513S462.682,327.663,556.7,327.663s170.512,76.492,170.512,170.513S650.725,668.69,556.7,668.69Zm0-272.762a102.25,102.25,0,1,0,102.249,102.25A102.365,102.365,0,0,0,556.7,395.928Z" transform="translate(99.055 92.969)"/>
    <path id="路径_4" data-name="路径 4" d="M964.171,884.225H895.908c0-77.468-29.537-149.9-83.172-203.957-53.968-54.392-126.818-84.347-205.131-84.347-158.971,0-288.3,129.331-288.3,288.3H251.038A356.566,356.566,0,0,1,607.605,527.658c96.648,0,186.708,37.123,253.591,104.53C927.6,699.116,964.171,788.625,964.171,884.225Z" transform="translate(49.689 166.02)"/>
  </g>
</svg>
