<svg id="系统" xmlns="http://www.w3.org/2000/svg" viewBox="0 0 1024 1024">
  <path id="路径_7" data-name="路径 7" d="M512,1024C229.23,1024,0,794.77,0,512S229.23,0,512,0s512,229.23,512,512C1023.679,794.637,794.637,1023.679,512,1024Zm0-999.024C243.024,24.976,24.976,243.024,24.976,512S243.024,999.024,512,999.024,999.024,780.976,999.024,512C998.749,243.138,780.862,25.251,512,24.976Z"/>
  <path id="路径_8" data-name="路径 8" d="M512,761.923c-53.614,0-95.74-109.81-95.74-249.923s41.626-249.756,95.573-249.756S607.74,371.887,607.74,512,565.531,761.923,512,761.923Zm0-482.862c-38.129,0-78.923,93.742-78.923,233.106S473.871,745.273,512,745.273,591.089,651.53,591.089,512,550.129,278.728,512,278.728Z" transform="translate(0 0)"/>
  <path id="路径_9" data-name="路径 9" d="M357.984,666.849c-27.973,0-48.786-7.659-58.693-23.81-28.056-45.622,43.374-138.864,162.674-212.376s234.771-95.324,262.91-49.951S681.418,519.826,562.117,593.338C484.86,641.041,409.267,666.849,357.984,666.849ZM666.017,373.3c-44.706,0-116.553,22.645-195.559,71.513C351.824,517.994,293.464,601.912,313.445,634.3s121.132,18.066,239.932-55.113S730.62,422.088,710.556,389.7c-6.577-10.823-22.228-16.4-44.54-16.4Z" transform="translate(0 0)"/>
  <path id="路径_10" data-name="路径 10" d="M666.016,666.849c-51.367,0-126.959-25.891-204.217-73.512-119.3-73.511-190.73-166.5-162.674-212.376,14.236-23.061,49.951-29.888,101.4-19.231a531.648,531.648,0,0,1,161.509,68.933c119.3,73.512,190.73,166.5,162.674,212.376-9.824,16.151-30.637,23.81-58.693,23.81ZM357.4,373.385c-21.979,0-37.38,5.578-43.957,16.65-19.98,32.385,38.379,116.553,157.18,189.482s220.368,87.249,239.932,54.78-38.379-116.553-157.18-189.482c-54.114-33.3-109.56-57.028-156.181-66.6a200.55,200.55,0,0,0-39.794-4.829Z" transform="translate(0 0)"/>
</svg>
