<svg xmlns="http://www.w3.org/2000/svg" viewBox="0 0 1024 1024">
  <path id="小区管理" d="M186.182,349.091V674.909c0,179.2,146.618,325.818,325.818,325.818S837.818,854.109,837.818,674.909V349.091h23.273V674.909a349.091,349.091,0,1,1-698.182,0V349.091h23.273Zm0,0V674.909c0,179.2,146.618,325.818,325.818,325.818S837.818,854.109,837.818,674.909V349.091h23.273V674.909a349.091,349.091,0,1,1-698.182,0V349.091h23.273Zm837.818,0H0V0H1024ZM23.273,325.818h977.455V23.273H23.273V325.818ZM512,930.909c-116.364,0-209.455-93.091-209.455-209.455S395.636,512,512,512,721.455,605.09,721.455,721.454,628.364,930.909,512,930.909Zm0-395.636c-102.4,0-186.182,83.782-186.182,186.182S409.6,907.637,512,907.637s186.182-83.782,186.182-186.182S614.4,535.273,512,535.273ZM162.909,95.418h20.945l51.2,146.618,51.2-146.618H307.2L246.691,260.654H223.418Zm165.236,0h18.618V260.654H328.145Zm53.527,0h60.51c25.6,0,46.546,6.982,60.509,23.273,11.636,13.964,18.618,34.909,18.618,60.509s-6.982,46.546-20.945,60.509-34.909,23.273-60.509,23.273H381.673V95.418Zm18.618,16.291V244.364H435.2c20.945,0,37.236-4.655,48.873-16.291,9.309-11.636,16.291-27.927,16.291-48.873q0-34.909-13.964-48.873c-9.309-11.636-25.6-16.291-48.873-16.291H400.29ZM546.909,95.418H665.6v16.291H567.854v55.854h93.091v16.291H567.854v60.509h102.4v16.291H549.236V95.418ZM768,93.091c25.6,0,44.218,6.982,58.182,25.6,13.964,16.291,20.945,37.236,20.945,60.509,0,25.6-6.982,46.546-20.945,60.509-13.964,16.291-34.909,25.6-58.182,25.6-25.6,0-44.218-9.309-58.182-25.6s-20.945-37.236-20.945-60.509c0-25.6,6.982-46.546,20.945-60.509C723.782,102.4,742.4,93.091,768,93.091Zm0,16.291c-18.618,0-34.909,6.982-44.218,18.618s-16.291,27.927-16.291,48.873,4.655,37.236,16.291,48.873c11.636,13.964,25.6,18.618,44.218,18.618s34.909-6.982,44.218-18.618,16.291-27.927,16.291-51.2c0-20.945-4.655-37.236-16.291-51.2C800.582,116.364,786.618,109.382,768,109.382Z"/>
</svg>
