<svg xmlns="http://www.w3.org/2000/svg" viewBox="0 0 1024.228 1024.229">
  <path id="管理员" d="M445.311,432.924c0,81.147,64.077,146.931,143.12,146.931s143.121-65.783,143.121-146.931S667.475,285.994,588.432,285.994,445.311,351.777,445.311,432.924ZM587.479,67.741c-282.788,0-512.114,229.326-512.114,512.115S304.691,1091.97,587.479,1091.97s512.114-229.326,512.114-512.114S870.267,67.741,587.479,67.741Zm.953,570.815q-6.251,0-12.5-.357c-111.21,6.192-201.345,93.826-214.681,205.87h-.476v.357c0,16.193-12.74,29.291-28.576,29.291s-28.577-13.1-28.577-29.291v-.476l-.238-2.262a31.476,31.476,0,0,1,1.548-9.645c13.931-103.233,80.133-189.319,170.387-229.207-52.747-37.03-87.4-99.3-87.4-169.911,0-113.592,89.659-205.75,200.393-205.75,110.615,0,200.393,92.04,200.393,205.75,0,70.131-34.173,132.047-86.325,169.2a272.749,272.749,0,0,1,95.017,69.06,29.541,29.541,0,0,1,13.455,24.885l.238,2.739c0,16.193-12.74,29.291-28.576,29.291a28.418,28.418,0,0,1-23.1-12.026v.833c-39.293-45.484-95.612-75.132-158.6-78.585-4.048.119-8.216.238-12.383.238Zm335.655,139.31L813.828,890.625a27.935,27.935,0,0,1-4.286,5.6,28.509,28.509,0,0,1-20.837,8.573,28.05,28.05,0,0,1-20.837-8.573,23.618,23.618,0,0,1-4.167-5.6l-53.224-54.057a29.764,29.764,0,0,1,0-41.436,28.042,28.042,0,0,1,40.364,0l37.745,38.459,95.017-97.16a28.042,28.042,0,0,1,40.364,0,29.651,29.651,0,0,1,.119,41.436Z" transform="translate(-75.365 -67.741)"/>
</svg>
