<svg xmlns="http://www.w3.org/2000/svg" viewBox="0 0 780.8 998.4">
  <path id="街道" d="M96,998.4c-51.2,0-96-44.8-96-96L128,89.6C128,44.8,172.8,0,224,0H556.8c51.2,0,96,44.8,96,96l128,800c0,57.6-44.8,102.4-96,102.4ZM192,96,64,908.8c0,12.8,12.8,25.6,32,25.6H684.8c19.2,0,32-12.8,32-32l-128-800c0-25.6-12.8-38.4-32-38.4H224C204.8,64,192,76.8,192,96ZM384,883.2c-12.8,0-25.6-12.8-25.6-25.6V768c0-12.8,12.8-25.6,25.6-25.6h12.8c12.8,0,25.6,12.8,25.6,25.6v89.6c0,12.8-12.8,25.6-25.6,25.6ZM384,672c-12.8,0-25.6-12.8-25.6-25.6V556.8c0-12.8,12.8-25.6,25.6-25.6h12.8c12.8,0,25.6,12.8,25.6,25.6v89.6c0,19.2-12.8,25.6-25.6,25.6Zm0-204.8c-12.8,0-25.6-12.8-25.6-25.6V352c0-12.8,12.8-25.6,25.6-25.6h12.8c12.8,0,25.6,12.8,25.6,25.6v89.6c0,12.8-12.8,25.6-25.6,25.6Zm0-204.8c-12.8,0-25.6-12.8-25.6-25.6v-96c0-12.8,12.8-25.6,25.6-25.6h12.8c12.8,0,25.6,12.8,25.6,25.6v89.6c0,19.2-12.8,32-25.6,32Z"/>
</svg>
