<svg xmlns="http://www.w3.org/2000/svg" viewBox="0 0 1038.676 1040.086">
  <path id="异常预警" d="M521.26.512c60.451-.846,47.892,60.808,47.892,118.656,0,24.271,4.132,55.017-5.433,70.732-6.832,11.225-18.22,18.122-33.739,20.692-9.11,1.5-17.569-2.18-22.872-4.88-33.284-16.951-23.946-66.6-23.946-114.85,0-20.237-4.262-47.4,2.18-63.118C492.4,10.5,503.789,7.768,521.26.512ZM212.11,104.43c14.055-.065,23.718,3.676,31.559,9.793l60.418,74.018c10.086,12.917,25.052,24.955,31.559,40.832,9.175,22.222-4.23,43.923-17.959,52.252-14.446,8.752-36.765,6.182-48.966-2.733-14.511-10.607-25.963-30.42-37.025-44.638l-33.186-40.8c-15.357-19.651-40.246-42.719-16.333-73.465,7.548-9.7,17.211-10.151,29.932-15.227Zm618.821,14.706c31.169-.586,60.971,23.3,47.371,57.132-6.6,16.4-22.254,26.842-32.665,39.726l-41.905,46.883c-7.418,9.207-15.715,21.148-25.573,27.753-11.062,7.386-32.763,9.761-45.745,2.18-16.918-9.891-30.1-36.6-16.333-59.312l41.385-46.265,32.665-36.472c7.125-8.85,14.706-19.521,24.467-25.573l16.333-5.986ZM786.358,882.218H253.43V637.846c0-49.258-3.188-103.69,8.166-142.049,21.278-71.9,62.533-121.91,120.836-156.755,25.475-15.227,54.2-25.963,88.171-33.186l33.739-3.254,31.039-.586c23.1,3.546,44.02,4.783,63.672,10.9,90.058,28.013,152.1,91.587,179.074,182.848,11.29,38.262,8.134,92.4,8.134,141.529V882.218ZM37.949,382.607c15.519-.325,26.679,3.254,39.172,5.986l71.87,14.153c18.025,4.23,37.188,4.49,48.412,15.259,11.55,11.062,19.749,34.552,8.719,52.772a45.94,45.94,0,0,1-29.379,20.692c-13.535,3.026-27.688-2.343-38.652-4.88L66.254,472.4c-18.415-4.295-38.034-4.88-50.625-14.673C-1.94,444.066-4.608,408.342,14,393.506c7.158-5.726,14.413-6.832,23.946-10.9Zm955.2,21.8c36.114-.39,60.581,37.546,38.066,68C1018.985,489,997.674,488.411,972.98,493.1L900.068,504c-10.834,2.082-25.052,6.475-37.546,3.807-14.153-3.026-26.321-12.038-31.559-23.946-10.607-23.978,3.156-48.868,20.66-56.611,10.086-4.49,23.035-4.1,35.4-6.507l72.391-11.452,33.739-4.88ZM201.243,918.658H722.589c66.274,0,124.187-11.875,150.248,31.559,4.88,8.134,10.151,21.473,7.613,36.472-11.257,66.112-81.338,52.8-156.2,52.8H240.969c-18.545,0-41.092,2.017-54.985-3.254-29.77-11.387-54.594-51.08-32.112-88.171a64.049,64.049,0,0,1,29.379-25.052l17.959-4.36Z" transform="translate(-1.201 -0.503)"/>
</svg>
