<svg xmlns="http://www.w3.org/2000/svg" viewBox="0 0 1066.676 1066.693">
  <g id="出租房-未选中" transform="translate(-0.022 -0.003)">
    <path id="路径_5" data-name="路径 5" d="M533.341,43.754c16.732,0,32.721,5.317,43.9,14.611l431.708,358.379c9.033,7.538,14,16.837,14,26.189a29.823,29.823,0,0,1-4.927,15.986H889.653V945.284a77.824,77.824,0,0,1-22.512,55.113,75.208,75.208,0,0,1-53.808,22.547H253.3A75.1,75.1,0,0,1,199.56,1000.4a77.845,77.845,0,0,1-22.51-55.118V458.905H48.717a29.726,29.726,0,0,1-4.944-15.972c-.005-9.345,4.981-18.644,14.006-26.155l431.6-358.411c11.189-9.287,27.211-14.613,43.958-14.613m0-43.751c-26.027,0-52.063,8.233-71.9,24.7L29.828,383.119c-39.742,33.075-39.742,86.541,0,119.538H133.3V945.283c0,67.138,53.74,121.413,120.006,121.413h560.03c66.331,0,120.071-54.274,120.071-121.413V502.669h103.534c39.677-33.009,39.677-86.475,0-119.55L605.184,24.7C585.384,8.236,559.368,0,533.341,0Z" transform="translate(0 0)"/>
    <path id="路径_6" data-name="路径 6" d="M400.837,251.119q68.361,19.532,55.34,48.829-19.532,58.6-78.127,91.148c-13.021,8.7-23.906,17.4-32.553,26.042l-6.511,3.255q-9.766,9.766,0,16.276c4.323,4.374,8.647,8.7,13.021,13.021q32.5,22.813,45.574,35.808,9.766,13.047,19.532,9.766,26.016,3.281,32.553,13.021,6.485,13.047-9.766,32.553-22.813,29.3-22.787,42.319-3.281,16.327-3.255,39.064c0,6.511,1.068,11.953,3.255,16.276q3.2-3.2,19.532-16.276,19.532-16.251,29.3-26.042c8.647-6.511,14.089-9.766,16.276-9.766q0,3.281-9.766,22.787a149.394,149.394,0,0,0-9.766,16.276q-16.327,39.064-39.064,68.361c-6.511,10.885-8.7,19.532-6.511,26.042q0,65.157-3.255,81.383v39.064c-4.374,10.885-14.14,17.344-29.3,19.532q-19.532-3.281-9.766-32.553,3.2-22.737,3.255-74.872c0-4.323-2.188-5.392-6.511-3.255-6.511,4.374-16.276,9.766-29.3,16.276q-26.093,16.327-39.064,26.042-29.3,19.532-39.064,3.255-13.047-12.971,3.255-39.064,61.8-97.659,87.893-169.276c-2.188-4.323-4.374-5.392-6.511-3.255q-55.391,29.3-100.914,16.276-13.047-3.2-9.766-9.766c0-4.323,4.323-9.766,13.021-16.276q61.8-39.064,107.425-52.085c4.323-2.137,5.392-6.511,3.255-13.021q-6.561-35.782-32.553-52.085-29.3-22.737-3.255-58.6Q371.514,319.48,374.795,267.4C374.795,254.374,383.442,248.983,400.837,251.119Zm279.956,87.893q35.782-12.971,29.3,39.064-9.766,78.127-9.766,179.041,0,110.706,9.766,162.765,12.971,3.281,35.808-3.255,61.8-6.485,55.34,22.787C799.052,750.3,790.354,755.69,775.2,755.69q-65.157-3.2-182.3,35.808-68.361,26.093-94.4,0c-6.511-2.137-9.766-4.323-9.766-6.511,2.136-2.137,6.511-4.323,13.021-6.511q16.25,3.281,45.574-13.021,39.064-12.971,110.68-32.553-6.561-6.484-13.021-26.042a234.106,234.106,0,0,0-16.277-32.553q-9.766-9.766,0-9.766c6.511,2.188,15.158,7.629,26.042,16.276,2.137,4.374,4.323,6.511,6.511,6.511,2.137,0,3.255-3.255,3.255-9.766V625.479q-16.327,6.561-42.319,22.787-22.813,13.047-6.511-6.511c8.647-15.158,11.9-26.042,9.766-32.553Q589.594,589.67,622.2,544.1c4.323-4.323,5.392-7.578,3.255-9.766-4.374-2.137-9.766-1.068-16.276,3.255q-9.766,6.561-9.766,0c0-4.323,3.255-9.766,9.766-16.276q32.5-19.532,61.851-19.532V391.1a2.9,2.9,0,0,0-3.255-3.255h-6.511a219.809,219.809,0,0,0-58.6,22.787q-9.766,6.561-9.766,19.532V531.075q-3.281,45.625-3.255,126.957c2.137,21.719,3.255,35.808,3.255,42.319q0,58.6-16.276,35.808-16.327-12.971-16.276-52.085-6.561-61.8,0-146.488,6.485-81.332,26.042-143.233c2.137-10.834,5.392-16.276,9.766-16.276q6.485,6.561,3.255,22.787Q631.913,355.313,680.793,339.012ZM667.772,531.075q-26.093,26.093-35.808,48.829c-4.374,8.7,0,14.14,13.021,16.277,2.136,2.188,4.323,3.255,6.511,3.255,4.323,2.188,7.578,3.255,9.766,3.255h3.255Q667.721,573.394,667.772,531.075Z" transform="translate(9.898 10.451)"/>
  </g>
</svg>
