<svg xmlns="http://www.w3.org/2000/svg" viewBox="0 0 642.316 1111.795">
  <path id="消防" d="M511.641,114.239c-9.839,30.674-20.257,10.418-43.407,6.945v45.722H594.4V104.979H512.22C512.8,110.188,512.8,113.66,511.641,114.239Zm0,0c1.158-.579,1.158-4.051.579-9.26C511.062,85.88,501.8,42.473,501.8,42.473c0-6.366-5.209.579-12.154.579,0,0-148.741,3.473-254.075-3.473-13.89-.579-13.89,0-21.414,7.524-6.945,9.26-7.524,38.2-1.736,43.407a11.779,11.779,0,0,0,8.681,3.473s32.989-12.733,200.25-11.575c4.63,0,9.839,6.945,1.158,12.154-28.938,18.52-118.645,50.931-150.477,64.242-6.945,2.894-12.154,9.26-13.89,14.469-1.736,6.945-2.894,18.52-2.894,27.2,0,7.524,8.681,12.733,15.626,9.26,38.777-21.414,97.231-60.191,175.364-86.235a42.113,42.113,0,0,1,21.993-1.736C491.385,124.656,501.8,144.913,511.641,114.239ZM265.09,202.21q11.286-6.077,24.308-13.89c37.041-21.993,87.971-51.509,151.056-72.345A45.338,45.338,0,0,1,455.5,113.66a49.715,49.715,0,0,1,22.572,5.788l2.894,1.158c4.63,1.736,8.1,3.473,11.575,3.473s7.524-1.736,11.575-15.626l.579-.579h.579c1.158-4.63-3.473-34.725-9.26-64.242.579-.579,1.158-.579,1.736-1.158,1.157-.579,2.315-1.158,1.736-1.158v1.736c6.366,31.253,12.154,64.821,10.418,70.03h-.579l-.579.579c-4.63,13.89-8.681,15.626-11.575,15.626s-6.945-1.736-11.575-3.473l-2.894-1.158c-6.366-2.894-13.89-5.788-22.572-5.788a47.683,47.683,0,0,0-15.048,2.315c-61.927,20.835-112.858,50.352-149.9,72.345-8.681,5.209-17.363,9.839-24.308,13.89a8.226,8.226,0,0,1-3.473,1.158,9.294,9.294,0,0,1-6.366-2.894c-1.158-1.158-1.736-1.736-1.736-2.894a5.218,5.218,0,0,0,2.894.579,9.778,9.778,0,0,0,2.894-1.158Zm243.657-83.92a11.609,11.609,0,0,0,11.575,11.575H625.078a11.609,11.609,0,0,0,11.575-11.575V66.781a11.609,11.609,0,0,0-11.575-11.575H520.323a11.609,11.609,0,0,0-11.575,11.575V118.29Zm10.418-30.1c0,6.366,5.209,11.575,12.154,11.575s12.154-5.209,12.154-11.575S538.264,76.62,531.319,76.62,519.165,81.828,519.165,88.195Zm1.736,0a4.63,4.63,0,1,1,0,9.26Zm2.315,0c0,4.63,3.473,7.524,8.1,7.524a7.8,7.8,0,0,0,8.1-7.524c0-4.63-3.473-7.524-8.1-7.524A7.8,7.8,0,0,0,523.216,88.195Zm8.1-67.715c-36.462,0-66.557,28.938-66.557,65.4s29.517,65.4,66.557,65.4c36.462,0,66.557-28.938,66.557-65.4C597.876,50,567.781,20.48,531.319,20.48ZM619.29,68.517C644.177,55.205,818.962,180.8,829.379,291.339c13.311,140.638,9.839,566.025,9.839,566.025H797.548s-.579-443.907-9.839-546.926C777.87,202.21,607.715,100.349,607.715,100.349S603.664,77.2,619.29,68.517Zm221.664,945.691H796.39a9.755,9.755,0,0,1-9.839-9.839V859.679a9.755,9.755,0,0,1,9.839-9.839h44.564a9.755,9.755,0,0,1,9.839,9.839v144.69A10.142,10.142,0,0,1,840.955,1014.208Zm-527.827,73.5c0,32.989,6.945,44.564,26.623,44.564h389.5c19.678,0,26.623-11.575,26.623-44.564v-75.239H313.127ZM756.456,458.021V417.508c0-89.707-71.766-163.21-162.052-167.84V162.276H468.234v87.971c-86.814,8.1-154.528,79.869-154.528,167.261V932.024h442.75ZM313.127,972.537h442.75v39.934H313.127ZM511.641,90.51a4.979,4.979,0,0,0-4.63-4.63v8.681C509.326,94.561,511.641,92.825,511.641,90.51Z" transform="translate(-208.477 -20.48)"/>
</svg>
