<svg xmlns="http://www.w3.org/2000/svg" viewBox="0 0 1024.001 1024">
  <path id="社区管理" d="M542.72,35.84c-282.746,0-512,229.254-512,512s229.254,512,512,512,512-229.254,512-512C1055.266,265.094,826.012,35.84,542.72,35.84Zm0,969.416c-252.179,0-456.87-204.691-456.87-456.87S290.541,91.516,542.72,91.516s456.87,204.691,456.87,456.87C1000.136,800.565,795.445,1005.256,542.72,1005.256Zm1.092-588.964h-84.06c-18.559,0-25.655-6.55-25.655-25.655,0-7.642,0-15.284.546-22.925,2.183-25.109,14.192-44.213,38.755-52.947,45.851-16.375,91.7-16.375,137.552-.546,26.2,9.279,39.3,28.93,40.392,56.222,2.183,37.663,4.367,49.126-42.576,45.851-10.917-.546-21.834,0-32.751,0a316.853,316.853,0,0,0-32.2,0h0ZM804.178,527.1c19.1,3.821,40.938,6,62.226,12.009,28.93,8.733,42.03,30.567,43.122,60.043.546,5.458,0,11.463,0,16.921,0,20.2-9.825,27.292-29.476,26.746-28.93-1.092-57.313-.546-86.243-.546-28.384,0-56.768.546-84.605-1.092-6-.546-14.738-8.188-16.375-14.192-12.008-42.03,9.279-79.693,51.855-90.61,18.559-4.913,37.117-6,59.5-9.279Zm-519.1-1.092c25.109,4.913,48.034,7.642,69.868,14.738,23.471,7.1,37.663,24.563,39.3,50.217a106.585,106.585,0,0,1,1.092,12.554c1.092,32.2-.546,39.846-37.117,38.755-51.309-1.638-102.618-.546-153.927,0-20.2,0-26.2-5.458-26.2-25.655a247.428,247.428,0,0,1,1.638-28.384c2.729-21.288,14.192-38.209,34.388-45.3,22.925-7.642,47.488-11.463,70.959-16.921ZM542.72,895H460.3c-19.1,0-25.655-6.55-25.655-25.655,0-8.733,0-16.921.546-25.655,2.183-21.834,12.554-40.392,33.3-47.488a260.637,260.637,0,0,1,64.409-13.646c27.838-2.183,55.676-1.092,81.876,11.463,22.925,10.371,35.48,27.838,36.571,52.947,2.183,44.759,1.092,49.672-43.667,48.034-21.288-1.092-43.122-.546-64.955,0ZM854.4,461.6c0,31.113-22.379,54.038-52.947,54.584a54.176,54.176,0,0,1-55.13-54.584c0-30.021,24.017-53.493,54.584-53.493,30.567-.546,53.493,22.38,53.493,53.493ZM542.174,289.657c-30.021-.546-53.492-25.655-52.947-55.13s25.655-54.038,55.13-53.493c30.021.546,54.584,26.2,53.493,56.222C597.3,266.731,572.2,290.2,542.174,289.657ZM233.227,461.6c0-31.113,22.925-54.038,53.493-54.038s54.038,22.925,54.584,53.493c0,31.113-24.017,55.13-54.584,54.584-31.113,0-53.493-23.471-53.493-54.038ZM543.812,767.814c-30.567.546-54.584-22.925-54.584-53.492,0-31.113,22.38-53.493,55.13-54.038,29.476-.546,52.947,22.925,52.947,53.493.546,30.567-22.38,54.038-53.493,54.038Zm64.955-2.729c33.3-32.75,64.409-65.5,98.252-95.522,7.1-6.55,22.379-4.367,33.842-6,.546,1.638,1.092,2.729,1.638,4.367-2.729,2.729-4.913,6-7.642,8.733L649.705,761.81C633.33,778.185,633.33,778.185,608.767,765.085Zm-132.094.546c-21.834,13.646-21.834,13.646-38.209-2.729-31.659-31.113-62.772-62.772-96.614-96.068,19.1-2.729,33.842-5.458,47.488,9.279,26.2,27.838,54.038,54.584,80.785,81.876a81.5,81.5,0,0,1,6.55,7.642ZM707.564,526.006c-7.1,6.55-12.554,11.463-17.467,15.829-33.842-34.388-67.684-68.23-100.981-102.618,15.83-1.092,30.567-2.729,44.759,12.554C656.255,477.426,681.91,500.9,707.564,526.006ZM501.782,439.763c-35.48,34.934-68.776,68.23-103.164,102.618-5.458-4.913-10.917-9.825-20.2-18.013,12.554-11.463,25.109-22.38,37.117-33.842,13.1-12.554,26.746-24.563,37.663-38.209,13.1-15.829,28.93-14.738,48.58-12.554Z" transform="translate(-30.72 -35.84)"/>
</svg>
