<svg xmlns="http://www.w3.org/2000/svg" viewBox="0 0 858.125 1068.244">
  <path id="租客" d="M767.906,1080.034H905.264l1.8-91.011H769.227Zm1.921-116.946H907.545l1.8-91.372H771.268ZM773.31,753.81l-1.441,85.368H910.187l1.561-85.368Zm-90.651,326.224h52.47l5.763-359.243h204.6l-7.324,359.363h39.262l-.6,32.3H682.3Zm-149.725-71.32c26.655-39.142,53.67-91.252,74.082-150.2H541.1l.36-32.779h72.4l.961-65.557c-19.811,0-39.622,0-59.434,6.724.12-13.207-6.484-19.691-6.364-32.9,66.037-6.724,118.987-6.724,165.093-13.087l6.243,32.9c-19.811,0-39.742,6.6-66.037,6.6l-1.081,72.161h72.4l-.48,32.779H652.881l-.841,58.953,20.051-19.571,58.233,58.593L703.67,982.9c-19.331-26.055-38.662-45.506-51.629-58.593l-2.882,207.837H616.381l2.761-201.474q-20.532,68.259-60.514,117.066C545.661,1034.769,539.3,1021.681,532.934,1008.714Zm0,0M801.646,148.788A290.021,290.021,0,0,0,391.494,558.94a292.2,292.2,0,0,0,64.717,48.868,466.391,466.391,0,0,0-59.674,20.412A453.513,453.513,0,0,0,119.3,1046.535a24.494,24.494,0,0,0,48.988,0c0-219.244,175.179-398.385,392.982-404.749a287.252,287.252,0,0,0,35.3,2.161,24.494,24.494,0,1,0,0-48.988c-4.683,0-9.245-.12-13.808-.36a24.773,24.773,0,0,0-9.485-1.921c-3.122,0-6.123,0-9.245.12C446.485,576.83,355.594,475.853,355.594,354.1c0-132.915,108.061-240.976,240.976-240.976S837.546,221.189,837.546,354.1a239.921,239.921,0,0,1-67.478,167.254,24.54,24.54,0,0,0,35.3,34.1,290.242,290.242,0,0,0-3.722-406.67Z" transform="translate(-119.3 -63.9)"/>
</svg>
