<svg xmlns="http://www.w3.org/2000/svg" viewBox="0 0 929.072 931.23">
  <path id="入住申请" d="M614.647,639.772h-66.7V750.308H921.366V226.488H547.942V337.471h66.7V293.355h240v390.07h-240V639.772Zm-94.3-277.492L393.22,489.682,520.344,617.092V523.134h133.43V456.253H520.344V362.281ZM219.033,182.834V803.655c0,85.717,69.336,155.2,154.844,155.2H993.259c85.524,0,154.847-69.489,154.847-155.2V182.834c0-85.731-69.322-155.2-154.847-155.2H373.877c-85.509,0-154.844,69.472-154.844,155.2Zm77.421,28.212A105.691,105.691,0,0,1,402.039,105.233H965.1A105.685,105.685,0,0,1,1070.68,211.045V775.429A105.685,105.685,0,0,1,965.1,881.257H402.039A105.7,105.7,0,0,1,296.454,775.429V211.046Z" transform="translate(-219.033 -27.63)"/>
</svg>
