<svg xmlns="http://www.w3.org/2000/svg" viewBox="0 0 1137.306 963.478">
  <g id="角色" transform="translate(-8.89 -55.679)">
    <path id="路径_18" data-name="路径 18" d="M702.634,625.494c-33.709-25.35-72.434-44.9-112.092-58.54,43.636-31.539,78-73.328,99.162-122.644-2.391,17.679,13.648-35.956,13.648-89.783,0-71.6-30.454-141.455-83.2-189.5S494.359,91.422,422.687,98.5a273.626,273.626,0,0,0-122.168,43.556c-14.538,7.81-40.51,32.484-62.443,61.467-43.556,58.54-57.338,134.893-43.211,205.246,12.8,64.072,53.559,121.356,106.752,158.521C175.339,611.8,75.559,713.948,31.762,840.459,17.221,881.845,8.918,929.782,8.89,979.636c0,17.212,13.648,32.305,30.454,34.1l814.533-.006c15.528-3.3,28.09-17.647,28.09-33.709a431.856,431.856,0,0,0-49.549-201.353c-29.97-60.421-76.269-111.4-130.478-152.044Z" transform="translate(0 5.421)"/>
    <path id="路径_19" data-name="路径 19" d="M1020.694,736.29c-31.539-60.421-76.916-111.4-130.821-152.044a398.972,398.972,0,0,0-184.592-75.688c88.7,5.9,104.513-6.864,117.493-21.933,48.176-52.852,73.6-125.792,66.522-197.463-6.435-63.117-35-122.475-82.044-165.577A263.082,263.082,0,0,0,632.228,55.679c-17.645,0-32.816,15.537-32.816,34.571a34.641,34.641,0,0,0,34.571,34.571c7.81,0,16.542.006,24.364,1.338h1.338c1.338,0,2.391.006,3.3.006,4.556.006,9.255,1.848,13.648,2.391a179.907,179.907,0,0,1,22.055,6.435c2.391.006,4.556,1.848,7.158,2.391,1.848.006,7.81,3.3,9.255,3.757A216.283,216.283,0,0,1,734.507,152.1a44.425,44.425,0,0,1,16.574,15.528c-6.292-7.639-4.271-7.158-2.9-5.655a.006.006,0,0,1,.006.006,205.748,205.748,0,0,1,61.467,81c13.292,31.793-27.72-47.087-27.72-46.459a11.642,11.642,0,0,1,1.848,2.391c1.848,3.3,4.556,5.9,6.435,9.255,4.556,7.158,8.331,14.538,12.466,21.442,1.338,3.3,3.3,6.435,4.556,9.255.006,1.848,1.338,3.3,1.848,5.184,2.391,7.81,5.184,15.528,7.158,24.364.006,3.757,1.848,7.81,2.391,11.687,0,1.338.006,5.184,1.338,7.158.006,7.81,1.338,14.892,1.338,22.844s0,16.542-1.338,24.364c0,1.338,0,1.848-.006,3.3V339.1c-.006,4.556-1.338,9.255-2.391,13.648-5.184,22.872-13.648,43.211-25.121,60.957,14.538-27.757,14.538-26.341,13.632-25.991-1.338,2.391-2.391,5.9-3.757,8.331-2.391,5.9-5.9,10.957-9.255,16.542-3.3,4.556-5.9,9.872-9.872,14.538-.006.006-1.338,1.338-1.338,1.848-1.848,2.391-3.757,4.556-5.9,7.158-7.81,9.255-16.542,16.907-25.35,24.695l-.006.006c-2.391,1.848-4.556,3.3-7.158,5.184-5.184,3.3-10.53,7.158-16.542,9.872-5.184,2.391-9.872,5.184-14.892,7.81a20.873,20.873,0,0,1-4.556,1.848c-2.164.51-4.556,1.848-6.435,2.391-11.687,3.757-23.4,7.158-35,9.872-1.338,0-1.848.006-3.3.006s-5.9.006-7.158.006c-6.435.006-12.8.006-20.1.006a34.764,34.764,0,0,0-34.571,34.571c0,1.848,0,3.757.006,6.435v.006l1.848,5.9v.006c.006,1.848,1.848,3.757,2.391,5.184v.006a34.551,34.551,0,0,0,28.551,14.892,411.667,411.667,0,0,1,49.549,3.3c1.848,0,3.3.006,4.556.006l11.687,1.848c8.331,1.338,16.542,3.3,24.695,5.184,15.528,3.757,30.454,9.255,45.575,14.892,1.338.006,4.556,1.848,7.158,2.391,2.391,1.338,5.184,1.848,7.81,3.3,7.158,3.3,14.892,7.158,22.055,10.957A351.111,351.111,0,0,1,847.293,631.4c3.3,1.848,5.9,4.556,9.255,6.435a1.317,1.317,0,0,1,1.338,1.338c.006.006,1.338,1.338,1.848,1.338,6.435,5.184,12.466,10.53,18.845,15.528a416.438,416.438,0,0,1,33.6,33.6c4.556,5.184,8.331,10.53,12.8,15.528,1.338,1.848,3.3,4.556,3.757,5.184,2.391,3.3,5.184,7.158,7.81,10.957A408.372,408.372,0,0,1,965.1,770.473c1.848,3.757,3.756,7.81,5.9,12.466l1.848,3.757c0,1.338,1.338,2.391,1.338,3.3,3.757,9.872,7.158,18.845,10.53,28.551,5.9,18.845,10.53,37.978,12.8,56.489,0,1.848.006,3.3.006,5.184v1.338c.006,5.184,1.338,10.53,1.338,15.528.006,10.53,1.338,21.442,1.338,31.959a34.571,34.571,0,1,0,69.142,0c-.007-74.6-19.406-144.568-52.442-206.276ZM819.8,336.3Z" transform="translate(76.852)"/>
  </g>
</svg>
