<svg xmlns="http://www.w3.org/2000/svg" viewBox="0 0 987.476 987.478">
  <path id="房屋管理" d="M199.99,838.816H327.233c13.119,0,23.276-9.734,23.276-22.148a23.135,23.135,0,0,0-23.276-23.206H199.99a23.208,23.208,0,0,0-23.276,23.276c0,12.343,10.157,22.077,23.276,22.077ZM548,475.919H675.248a22.994,22.994,0,0,0,0-45.847H548a23.559,23.559,0,0,0-23.558,23.208c0,12.411,11,22.568,23.558,22.568Zm0,181.413H675.248a22.641,22.641,0,1,0,0-45.283H548a23.276,23.276,0,0,0-23.558,22.924C524.446,647.387,535.449,657.332,548,657.332ZM786.9,838.816H914.64a22.289,22.289,0,0,0,22.712-22.148,22.994,22.994,0,0,0-22.712-23.206H786.974a22.994,22.994,0,0,0-22.712,23.276c0,12.343,10.086,22.077,22.712,22.077Zm-238.9,0H675.248c13.119,0,23.276-9.734,23.276-22.148a23.135,23.135,0,0,0-23.276-23.206H548a23.77,23.77,0,0,0-23.558,23.276c0,12.344,11,22.077,23.558,22.077ZM974.312,975.159H487.839V140.036H974.312Zm-563.073,0H141.446V512.032H411.239ZM1013.176,64H449.539a37.947,37.947,0,0,0-38.3,37.736V435.714H102.794A39.076,39.076,0,0,0,64,473.8v539.656c0,21.09,17.775,38.018,38.794,38.018h910.383a38.006,38.006,0,0,0,38.3-38.018V101.736A37.947,37.947,0,0,0,1013.176,64ZM548,293.941H675.248a22.571,22.571,0,0,0,23.276-22.359,22.923,22.923,0,0,0-23.276-23.206H548a23.559,23.559,0,0,0-23.558,23.208C524.446,284,535.449,293.941,548,293.941Zm238.9,0H914.64a22.853,22.853,0,0,0,0-45.565H786.974a22.782,22.782,0,1,0,0,45.565Zm0,363.391H914.64a22.642,22.642,0,1,0,0-45.283H786.974a22.641,22.641,0,1,0,0,45.283Zm-586.914,0H327.233a22.641,22.641,0,1,0,0-45.283H199.99a22.641,22.641,0,1,0,0,45.283ZM786.833,475.919H914.64a22.924,22.924,0,0,0,0-45.847H786.974a22.853,22.853,0,0,0-22.712,23.206,22.622,22.622,0,0,0,22.712,22.571Z" transform="translate(-64 -63.999)"/>
</svg>
