<svg xmlns="http://www.w3.org/2000/svg" viewBox="0 0 942.201 970.84">
  <path id="设备" d="M862.624,275.661H847.9V99.6c0-54.3-42.918-98.546-95.69-98.546H222.275C169.523,1.058,126.6,45.3,126.6,99.6V275.66H111.883c-52.752,0-95.69,44.245-95.69,98.546V778.929c0,54.3,42.938,98.546,95.69,98.546,7.562,0,11.383,6.034,11.423,19.086,1.026,30.288,25.441,75.317,88.35,75.317s87.3-45.05,88.49-76.424c0-8.95,1.468-17.316,11.323-17.96H663.078c7.5,0,11.343,6.033,11.363,19.146,1.106,30.167,25.521,75.257,88.49,75.257s87.324-45.05,88.39-76.424c0-8.95,1.468-17.316,11.383-17.96,52.752,0,95.69-44.245,95.69-98.546v-404.7c0-54.3-42.918-98.546-95.69-98.546ZM185.471,99.6a37.347,37.347,0,0,1,36.8-37.87H752.213a37.347,37.347,0,0,1,36.7,37.87V561.987c0,20.856-16.512,37.93-36.8,37.93H222.276c-20.292,0-36.8-17.075-36.8-37.93ZM899.429,778.929c0,20.916-16.512,37.93-36.8,37.93-28.156,0-70.269,20.916-70.209,76.725-.784,8.045-6.556,17.658-29.564,17.658s-28.8-9.654-29.544-15.767c0-57.72-41.973-78.636-70.209-78.636H311.41c-28.156,0-70.209,20.916-70.189,77.57,0,1.669-1.448,16.833-29.584,16.833-23.007,0-28.779-9.593-29.5-15.767,0-57.72-42.033-78.636-70.269-78.636-20.313,0-36.8-17.014-36.8-37.93V374.266c0-20.856,16.491-37.93,36.8-37.93h14.722V561.987c0,54.3,42.938,98.546,95.67,98.546H752.193c52.753,0,95.69-44.245,95.69-98.546V336.336H862.6c20.293,0,36.8,17.075,36.8,37.93Zm-616.436-314H691.5a30.348,30.348,0,0,0,0-60.676h-408.5a30.348,30.348,0,0,0,0,60.676Zm0,0" transform="translate(-16.193 -1.058)"/>
</svg>
