<svg id="图层_1" data-name="图层 1" xmlns="http://www.w3.org/2000/svg" viewBox="0 0 24 24"><defs><style>.cls-1{fill:#6cc;}</style></defs><title>修改、编辑</title><path class="cls-1" d="M17.87,20H6.13A2.13,2.13,0,0,1,4,17.87V6.13A2.14,2.14,0,0,1,6.13,4h7.74a.27.27,0,0,1,.26.27V4.8a.27.27,0,0,1-.26.27H6.67a1.59,1.59,0,0,0-1.6,1.6V17.33a1.59,1.59,0,0,0,1.6,1.6H17.33a1.59,1.59,0,0,0,1.6-1.6v-7.2a.27.27,0,0,1,.27-.26h.53a.27.27,0,0,1,.27.26v7.74A2.13,2.13,0,0,1,17.87,20Zm.94-12.7L16.59,5.21l.67-.67a1.38,1.38,0,0,1,1.92,0l.27.26a1.29,1.29,0,0,1,0,1.86ZM8.25,13.59l2.21,2.09L7.2,16.8Zm10-5.74L11,15.14,8.78,13.05l7.27-7.3Z"/></svg>