<?xml version="1.0" standalone="no"?><!DOCTYPE svg PUBLIC "-//W3C//DTD SVG 1.1//EN" "http://www.w3.org/Graphics/SVG/1.1/DTD/svg11.dtd"><svg class="icon" width="200px" height="199.22px" viewBox="0 0 1028 1024" version="1.1" xmlns="http://www.w3.org/2000/svg"><path d="M908.305625 573.9153125H98.268125a66.12 66.12 0 0 1-55.2140625-29.634375 66.061875 66.061875 0 0 1-5.8040625-62.390625l148.696875-351.995625a66.140625 66.140625 0 0 1 61.040625-40.48125H759.59375a66.15 66.15 0 0 1 61.0340625 40.4634375l148.7034375 352.0125a66.0890625 66.0890625 0 0 1-5.821875 62.390625 66.0853125 66.0853125 0 0 1-55.2046875 29.634375" fill="#E8B8BB" /><path d="M222.93125 53.1715625h125.95875V300.228125H222.9303125z" fill="#FFFFFF" /><path d="M102.0584375 953.658125h802.4484375V544.8265625H102.0584375v408.8315625z m423.133125-144.328125H209.830625V633.66875H525.190625v175.663125z" fill="#E5E3CA" /><path d="M991.16375 510.995L842.425625 158.9909375c-10.3921875-24.5859375-34.3153125-40.5121875-61.0153125-40.5121875H312.5375v36.3684375H781.409375c11.9990625 0 22.846875 7.1934375 27.56625 18.25875l148.6659375 351.9965625c3.99375 9.3871875 3.043125 19.6453125-2.62125 28.1503125-5.6034375 8.514375-14.7009375 13.374375-24.875625 13.374375H120.09875c-10.190625 0-19.2796875-4.86-24.954375-13.374375-5.5940625-8.505-6.5446875-18.763125-2.6128125-28.1503125L222.940625 216.441875l18.320625-43.3359375a29.596875 29.596875 0 0 1 18.039375-16.6678125V119.20625a65.690625 65.690625 0 0 0-36.36 17.745 65.205 65.205 0 0 0-15.208125 22.0425l-148.65 352.003125c-8.6615625 20.5125-6.48375 43.78875 5.8125 62.4065625 12.2878125 18.538125 32.94375 29.60625 55.205625 29.60625h810.0459375c22.2515625 0 42.9065625-11.06625 55.20375-29.60625 12.2896875-18.6178125 14.465625-41.8940625 5.814375-62.4075"  /><path d="M222.93125 300.2290625h125.95875V53.1715625H222.9303125V300.228125z m89.59875-36.361875h-53.23125V89.5315625h53.23125v174.335625z"  /><path d="M616.72625 464.2878125L503.2746875 326.195l-113.428125 138.09375-28.096875-23.0803125 141.525-172.299375L644.830625 441.209375z" fill="#FFFFFF" /><path d="M926.33 975.4746875H123.875V566.635625h802.455v408.8390625z m-766.085625-36.36h729.71625V603.0059375H160.244375V939.115625z"  /><path d="M525.1915625 809.3309375H209.830625V633.6678125H525.190625v175.663125zM246.2 772.9709375h242.6325V670.0296875H246.2v102.94125z"  /><path d="M349.3353125 651.8496875h36.36v139.2928125h-36.36z m413.81625 321.628125H569.8540625V704.48375c0-39.0496875 31.764375-70.809375 70.8103125-70.809375h51.6721875c39.035625 0 70.816875 31.75875 70.816875 70.809375v268.9921875z m-156.935625-36.3609375h120.55875v-232.63125c0-18.99-15.4490625-34.449375-34.44-34.449375H640.6625c-18.9909375 0-34.4484375 15.459375-34.4484375 34.4484375v232.6321875z"  /><path d="M647.586875 835.0259375a14.77875 14.77875 0 0 1-14.7871875 14.77875 14.776875 14.776875 0 0 1-14.7778125-14.77875 14.776875 14.776875 0 0 1 14.7778125-14.776875c8.1703125 0 14.7871875 6.6159375 14.7871875 14.776875m-8.9521875-370.738125L525.183125 326.195l-113.43375 138.09375-28.09875-23.0803125 141.5325-172.299375L666.741875 441.209375z"  /></svg>