<svg id="icon-bianji" xmlns="http://www.w3.org/2000/svg" viewBox="0 0 19.743 20.401">
  <defs>
    <style>
      .cls-1 {
        fill: #409eff;
      }
    </style>
  </defs>
  <path id="路径_7" data-name="路径 7" class="cls-1" d="M111.233,74.143a.455.455,0,0,0-.455.455v7.7a1.6,1.6,0,0,1-1.594,1.594H95.164A1.6,1.6,0,0,1,93.57,82.3V66.906a1.6,1.6,0,0,1,1.594-1.594h8.247a.455.455,0,1,0,0-.911H95.164a2.507,2.507,0,0,0-2.5,2.5V82.3a2.507,2.507,0,0,0,2.5,2.5h14.02a2.507,2.507,0,0,0,2.5-2.5V74.6A.455.455,0,0,0,111.233,74.143Z" transform="translate(-92.659 -64.402)"/>
  <path id="路径_8" data-name="路径 8" class="cls-1" d="M282.144,66.267l-.8-.8a1.368,1.368,0,0,0-1.932,0l-9.613,9.613a.457.457,0,0,0-.075.1l-2.9,5.168a.455.455,0,0,0,.636.61l4.991-3.075a.457.457,0,0,0,.083-.066l9.613-9.613A1.368,1.368,0,0,0,282.144,66.267Zm-11.926,9.88,1.261,1.258-3,1.851ZM281.5,67.555l-9.294,9.294L270.755,75.4l9.3-9.3a.456.456,0,0,1,.644,0l.805.805A.456.456,0,0,1,281.5,67.555Z" transform="translate(-262.8 -65.047)"/>
</svg>
