<svg id="icon-landlords" xmlns="http://www.w3.org/2000/svg" viewBox="0 0 19.934 18.69">
  <defs>
    <style>
      .cls-1 {
        fill: #409eff;
      }
    </style>
  </defs>
  <path id="路径_3" data-name="路径 3" class="cls-1" d="M134.313,80.821a.62.62,0,0,1-.351-.108l-9.078-6.2-8.9,6.192a.623.623,0,1,1-.711-1.023l9.255-6.437a.623.623,0,0,1,.707,0l9.433,6.437a.623.623,0,0,1-.352,1.137Z" transform="translate(-115.003 -73.138)"/>
  <path id="路径_4" data-name="路径 4" class="cls-1" d="M223.687,288.863h0l-13.85,0a.623.623,0,0,1-.623-.623V275.831a.623.623,0,0,1,1.246,0v11.785l12.6,0V275.955a.623.623,0,0,1,1.246,0v12.285a.623.623,0,0,1-.623.623Z" transform="translate(-206.867 -270.173)"/>
  <path id="路径_5" data-name="路径 5" class="cls-1" d="M389.3,333.887a3.112,3.112,0,1,1,3.112-3.112A3.115,3.115,0,0,1,389.3,333.887Zm0-4.978a1.866,1.866,0,1,0,1.866,1.866A1.868,1.868,0,0,0,389.3,328.909Z" transform="translate(-379.433 -321.321)"/>
  <path id="路径_6" data-name="路径 6" class="cls-1" d="M264.052,534.165h-1.246a5.261,5.261,0,0,0-10.523,0h-1.246a6.507,6.507,0,1,1,13.014,0Z" transform="translate(-247.649 -516.333)"/>
</svg>
