<svg xmlns="http://www.w3.org/2000/svg" viewBox="0 0 22.709 19.61">
  <defs>
    <style>
      .cls-1 {
        fill: #409eff;
      }
    </style>
  </defs>
  <path id="添加人员" class="cls-1" d="M43.124,107.765a3.858,3.858,0,0,0-1.276-1.276,7.028,7.028,0,0,0-2.52-.911l-.02,0a14.963,14.963,0,0,1-1.547-.3c-1.356-.347-1.475-.654-1.476-.656a.424.424,0,0,0-.034-.087,3.512,3.512,0,0,1,.014-.85,4.957,4.957,0,0,1,1.55-3.03,7.181,7.181,0,0,0,.532-.631,3.99,3.99,0,0,0,.685-1.918c0-.007,0-.013,0-.02a1.03,1.03,0,0,0-.045-.324.983.983,0,0,0-.261-.4c-.021-.022-.042-.043-.058-.063s-.023-.026-.008-.125c.055-.364.089-.668.1-.958a9.123,9.123,0,0,0-.083-2.043,3.024,3.024,0,0,0-.088-.426,3.344,3.344,0,0,0-.672-1.317l-.009-.01c-.054-.058-1.367-1.444-5.18-1.728A12.184,12.184,0,0,0,31.2,90.7h-.024a2.285,2.285,0,0,0-.451.055.644.644,0,0,0-.526.492.844.844,0,0,0,.088.531c.008.017.017.038.024.055a.377.377,0,0,1-.023.039,1.756,1.756,0,0,1-.365.374l0,0a3.112,3.112,0,0,0-1.05,1.938,9.62,9.62,0,0,0,.026,2.924l.011.056a.863.863,0,0,1,.022.149l-.012.012-.009.008a.91.91,0,0,0-.385.743c0,.007,0,.013,0,.02a3.989,3.989,0,0,0,.685,1.918,7.293,7.293,0,0,0,.532.631,4.962,4.962,0,0,1,1.55,3.03,3.473,3.473,0,0,1,.014.85.374.374,0,0,0-.034.087s-.119.309-1.469.655a15.029,15.029,0,0,1-1.554.3l-.015,0a6.787,6.787,0,0,0-2.5.888,3.868,3.868,0,0,0-1.278,1.278,3.091,3.091,0,0,0-.458,1.662v.477a.4.4,0,0,0,.408.4H43.155a.4.4,0,0,0,.408-.4v-.474a2.962,2.962,0,0,0-.439-1.643Zm-.373,1.591a.305.305,0,0,0,0,.038v.091H24.8v-.091c0-.012,0-.019,0-.031a2.346,2.346,0,0,1,.372-1.259,3.111,3.111,0,0,1,1.024-.991,6,6,0,0,1,2.163-.752,15.833,15.833,0,0,0,1.64-.32c1.544-.4,1.919-.835,2.034-1.154a2.544,2.544,0,0,0,.065-1.276,5.7,5.7,0,0,0-1.751-3.485,6.755,6.755,0,0,1-.473-.557,3.242,3.242,0,0,1-.54-1.5.122.122,0,0,1,0-.034.98.98,0,0,1,.118-.116l.01-.009a.849.849,0,0,0,.237-.9l-.01-.049a8.832,8.832,0,0,1-.02-2.671.4.4,0,0,0,.006-.055,2.315,2.315,0,0,1,.771-1.395,2.511,2.511,0,0,0,.525-.555,1.042,1.042,0,0,0,.125-.257.746.746,0,0,0-.05-.533c.061-.006.127-.01.165-.011l.026,0a11.493,11.493,0,0,1,1.431-.008,10.965,10.965,0,0,1,3.631.835,3.669,3.669,0,0,1,1,.63,2.583,2.583,0,0,1,.5,1,2.424,2.424,0,0,1,.069.329l0,.021a8,8,0,0,1,.074,1.874c-.014.265-.045.546-.1.885a.88.88,0,0,0,.189.75c.032.037.063.069.09.1a.419.419,0,0,1,.076.09.279.279,0,0,1,.008.075,3.239,3.239,0,0,1-.54,1.5,6.791,6.791,0,0,1-.473.557,5.7,5.7,0,0,0-1.751,3.485,2.535,2.535,0,0,0,.066,1.276c.114.319.489.759,2.033,1.154a15.577,15.577,0,0,0,1.638.32,6.254,6.254,0,0,1,2.183.774,3.107,3.107,0,0,1,1.023.988,2.231,2.231,0,0,1,.356,1.233Zm3.606-13.1H43.67V93.569a.336.336,0,0,0-.672,0v2.685H40.313a.336.336,0,0,0,0,.672H43v2.685a.336.336,0,1,0,.672,0V96.926h2.685a.336.336,0,0,0,0-.672Z" transform="translate(-23.982 -90.668)"/>
</svg>
