<svg xmlns="http://www.w3.org/2000/svg" viewBox="0 0 16.065 20">
  <defs>
    <style>
      .cls-1 {
        fill: #6cf;
      }
    </style>
  </defs>
  <path id="icon-renters" class="cls-1" d="M131.442,82.867h2.572l.034-1.7h-2.58Zm.036-2.189h2.578l.034-1.711h-2.585Zm.065-3.918-.027,1.6h2.59l.029-1.6Zm-1.7,6.107h.982l.108-6.725h3.83l-.137,6.728h.735l-.011.6H129.84Zm-2.8-1.335a12.184,12.184,0,0,0,1.387-2.812H127.2l.007-.614h1.355l.018-1.227a3.365,3.365,0,0,0-1.113.126c0-.247-.121-.369-.119-.616,1.236-.126,2.228-.126,3.091-.245l.117.616c-.371,0-.744.124-1.236.124l-.02,1.351h1.355l-.009.614h-1.353l-.016,1.1.375-.366,1.09,1.1-.5.366a9.854,9.854,0,0,0-.967-1.1l-.054,3.891h-.614l.052-3.772a6.257,6.257,0,0,1-1.133,2.192,2.481,2.481,0,0,1-.481-.731Zm0,0,5.031-16.1a5.43,5.43,0,1,0-6.467,8.593,8.73,8.73,0,0,0-1.117.382,8.49,8.49,0,0,0-5.19,7.831.459.459,0,0,0,.917,0,7.59,7.59,0,0,1,7.357-7.577,5.378,5.378,0,0,0,.661.04.459.459,0,1,0,0-.917c-.088,0-.173,0-.259-.007a.464.464,0,0,0-.178-.036c-.058,0-.115,0-.173,0a4.509,4.509,0,1,1,3.857-1.338.459.459,0,0,0,.661.638,5.434,5.434,0,0,0-.07-7.613Z" transform="translate(-119.3 -63.843)"/>
</svg>
