<?xml version="1.0" encoding="utf-8"?>
<!-- Generator: Adobe Illustrator 22.1.0, SVG Export Plug-In . SVG Version: 6.00 Build 0)  -->
<svg version="1.1" id="图层_1" xmlns="http://www.w3.org/2000/svg" xmlns:xlink="http://www.w3.org/1999/xlink" x="0px" y="0px"
	 viewBox="0 0 20 20" style="enable-background:new 0 0 20 20;" xml:space="preserve">
<style type="text/css">
	.st0{fill:#66CCFF;}
</style>
<path class="st0" d="M19.7,6.6l-9.5-6.5C10,0,9.8,0,9.6,0.1L0.3,6.6C0,6.8-0.1,7.2,0.1,7.4C0.3,7.7,0.7,7.8,1,7.6l1.4-1v11.5
	c0,0.3,0.3,0.6,0.6,0.6l13.9,0h0c0.2,0,0.3-0.1,0.4-0.2c0.1-0.1,0.2-0.3,0.2-0.4V6.6l1.5,1c0.1,0.1,0.2,0.1,0.4,0.1
	c0.2,0,0.4-0.1,0.5-0.3C20.1,7.2,20,6.8,19.7,6.6z M9.9,11.4c-1,0-1.9-0.8-1.9-1.9c0-1,0.8-1.9,1.9-1.9c1,0,1.9,0.8,1.9,1.9
	C11.8,10.5,10.9,11.4,9.9,11.4z M9.9,12.6c1.4,0,2.8,0.5,3.8,1.5c0.9,0.9,1.4,2.1,1.5,3.3l-10.5,0C4.9,14.8,7.1,12.6,9.9,12.6z
	 M16.3,5.8v10.4c-0.3-1.1-0.9-2.1-1.7-3c-0.7-0.7-1.6-1.2-2.5-1.6c0.6-0.6,0.9-1.4,0.9-2.2c0-1.7-1.4-3.1-3.1-3.1
	c-1.7,0-3.1,1.4-3.1,3.1c0,0.9,0.4,1.7,1,2.3c-0.9,0.3-1.7,0.8-2.4,1.5c-0.8,0.8-1.4,1.9-1.7,3V5.8l6.3-4.4L16.3,5.8
	C16.3,5.7,16.3,5.8,16.3,5.8z"/>
</svg>
